<svg width="35" height="35" viewBox="0 0 35 35" fill="none" xmlns="http://www.w3.org/2000/svg">
<path d="M19.2085 4.375H13.125C10.3751 4.375 9.00017 4.375 8.1459 5.22927C7.29163 6.08354 7.29163 7.45847 7.29163 10.2083V24.7917C7.29163 27.5415 7.29163 28.9165 8.1459 29.7707C9.00017 30.625 10.3751 30.625 13.125 30.625H21.875C24.6248 30.625 25.9997 30.625 26.854 29.7707C27.7083 28.9165 27.7083 27.5415 27.7083 24.7917V12.8748C27.7083 12.2787 27.7083 11.9806 27.5973 11.7126C27.4863 11.4446 27.2755 11.2339 26.854 10.8124L21.2709 5.22927C20.8494 4.80777 20.6386 4.59702 20.3706 4.48601C20.1026 4.375 19.8046 4.375 19.2085 4.375Z" stroke="#CED4DA" stroke-width="2"/>
<path d="M18.9584 4.375V10.2083C18.9584 11.5833 18.9584 12.2707 19.3855 12.6979C19.8126 13.125 20.5001 13.125 21.875 13.125H27.7084" stroke="#CED4DA" stroke-width="2"/>
</svg>
