<svg width="310" height="116" viewBox="0 0 310 116" fill="none" xmlns="http://www.w3.org/2000/svg">
<path d="M42.9735 60.798C44.2965 59.3548 45.6494 57.8515 47.0325 56.288C48.4757 54.7246 49.8587 53.1912 51.1816 51.6879C52.5045 50.1245 53.7372 48.6512 54.8797 47.2682C56.0824 45.8852 57.1046 44.6825 57.9465 43.6603H73.9116C70.7246 47.3283 67.5977 50.8461 64.531 54.2135C61.5244 57.5208 58.2171 60.9483 54.6091 64.4961C56.4131 66.1197 58.2772 68.074 60.2015 70.359C62.1257 72.5839 63.9898 74.899 65.7938 77.3043C67.5977 79.7096 69.2514 82.1149 70.7547 84.5202C72.258 86.9254 73.5208 89.1203 74.543 91.1046H59.1191C58.157 89.5412 57.0445 87.8274 55.7817 85.9633C54.5791 84.0391 53.2862 82.1449 51.9032 80.2808C50.5202 78.3566 49.0469 76.5226 47.4835 74.7787C45.9802 73.0349 44.4769 71.5616 42.9735 70.359V91.1046H29.534V23.2754L42.9735 21.1107V60.798Z" fill="#22577A"/>
<path d="M122.887 67.2923C122.887 71.0205 122.345 74.448 121.263 77.5749C120.181 80.6416 118.617 83.2874 116.573 85.5123C114.528 87.6771 112.063 89.3608 109.176 90.5634C106.35 91.7661 103.163 92.3674 99.6153 92.3674C96.1277 92.3674 92.9407 91.7661 90.0543 90.5634C87.2281 89.3608 84.7927 87.6771 82.7482 85.5123C80.7037 83.2874 79.1102 80.6416 77.9677 77.5749C76.8252 74.448 76.254 71.0205 76.254 67.2923C76.254 63.564 76.8252 60.1666 77.9677 57.0998C79.1704 54.0331 80.7939 51.4173 82.8384 49.2526C84.9431 47.0878 87.4085 45.4041 90.2347 44.2015C93.1211 42.9988 96.2479 42.3975 99.6153 42.3975C103.043 42.3975 106.17 42.9988 108.996 44.2015C111.882 45.4041 114.348 47.0878 116.392 49.2526C118.437 51.4173 120.03 54.0331 121.173 57.0998C122.315 60.1666 122.887 63.564 122.887 67.2923ZM109.176 67.2923C109.176 63.1431 108.335 59.896 106.651 57.5508C105.027 55.1455 102.682 53.9429 99.6153 53.9429C96.5486 53.9429 94.1734 55.1455 92.4897 57.5508C90.806 59.896 89.9641 63.1431 89.9641 67.2923C89.9641 71.4414 90.806 74.7487 92.4897 77.2141C94.1734 79.6194 96.5486 80.822 99.6153 80.822C102.682 80.822 105.027 79.6194 106.651 77.2141C108.335 74.7487 109.176 71.4414 109.176 67.2923Z" fill="#22577A"/>
<path d="M152.239 92.0066C148.33 91.9465 145.143 91.5256 142.678 90.7438C140.273 89.9621 138.349 88.8797 136.905 87.4967C135.522 86.0535 134.56 84.3398 134.019 82.3554C133.538 80.3109 133.297 78.0259 133.297 75.5003V23.2754L146.737 21.1107V72.7944C146.737 73.997 146.827 75.0794 147.008 76.0415C147.188 77.0036 147.519 77.8154 148 78.4769C148.541 79.1383 149.293 79.6795 150.255 80.1004C151.217 80.5214 152.51 80.792 154.133 80.9122L152.239 92.0066Z" fill="#22577A"/>
<path d="M202.336 89.4811C200.051 90.1425 197.104 90.7438 193.496 91.285C189.888 91.8864 186.1 92.187 182.131 92.187C178.103 92.187 174.735 91.6458 172.029 90.5634C169.383 89.4811 167.279 87.9778 165.715 86.0535C164.152 84.0692 163.039 81.724 162.378 79.018C161.716 76.3121 161.386 73.3355 161.386 70.0884V43.6603H174.825V68.4648C174.825 72.7944 175.397 75.9212 176.539 77.8455C177.682 79.7697 179.816 80.7318 182.943 80.7318C183.905 80.7318 184.928 80.7018 186.01 80.6416C187.092 80.5214 188.054 80.4011 188.896 80.2808V43.6603H202.336V89.4811Z" fill="#22577A"/>
<path d="M241.019 65.9393C241.019 61.6098 240.448 58.543 239.305 56.739C238.223 54.9351 236.329 54.0331 233.623 54.0331C232.781 54.0331 231.909 54.0932 231.007 54.2135C230.105 54.2736 229.233 54.3638 228.391 54.4841V91.1046H214.952V45.2838C216.094 44.9832 217.417 44.6825 218.92 44.3819C220.484 44.0211 222.107 43.7204 223.791 43.4799C225.535 43.1792 227.309 42.9687 229.113 42.8485C230.917 42.6681 232.691 42.5779 234.435 42.5779C237.862 42.5779 240.628 43.0289 242.733 43.9309C244.898 44.7727 246.671 45.795 248.054 46.9976C249.979 45.6146 252.174 44.5322 254.639 43.7505C257.165 42.9687 259.48 42.5779 261.584 42.5779C265.373 42.5779 268.469 43.1191 270.875 44.2015C273.34 45.2237 275.294 46.6969 276.738 48.6212C278.181 50.5454 279.173 52.8304 279.714 55.4763C280.255 58.1221 280.526 61.0686 280.526 64.3157V91.1046H267.086V65.9393C267.086 61.6098 266.515 58.543 265.373 56.739C264.29 54.9351 262.396 54.0331 259.69 54.0331C258.968 54.0331 257.946 54.2135 256.623 54.5743C255.361 54.9351 254.308 55.3861 253.466 55.9272C253.887 57.3103 254.158 58.7835 254.278 60.347C254.398 61.8503 254.459 63.4739 254.459 65.2177V91.1046H241.019V65.9393Z" fill="#22577A"/>
<path d="M5 0L5.1804 115.454M304.82 0L305 115.454" stroke="#22577A" stroke-width="10"/>
</svg>
