<svg width="35" height="35" viewBox="0 0 35 35" fill="none" xmlns="http://www.w3.org/2000/svg">
<path d="M20.5967 4.71774L19.6017 4.81724V4.81724L20.5967 4.71774ZM20.6532 5.28208L21.6482 5.18258V5.18257L20.6532 5.28208ZM21.451 7.96137L21.8337 7.03749L21.451 7.96137ZM23.9097 6.63099L23.2765 5.85703V5.85703L23.9097 6.63099ZM24.3486 6.27187L24.9819 7.04582V7.04582L24.3486 6.27187ZM25.7321 5.47399L25.6823 6.47275L25.7321 5.47399ZM27.0293 6.40557L26.3222 7.11267H26.3222L27.0293 6.40557ZM28.5944 7.97066L29.3015 7.26356L29.3015 7.26356L28.5944 7.97066ZM29.526 9.26788L30.5248 9.21807V9.21806L29.526 9.26788ZM28.7281 10.6514L27.9542 10.0181V10.0181L28.7281 10.6514ZM28.369 11.0903L27.595 10.4571H27.595L28.369 11.0903ZM27.0386 13.549L26.1147 13.9317L26.1147 13.9317L27.0386 13.549ZM29.7179 14.3469L29.8174 13.3518L29.7179 14.3469ZM30.2823 14.4033L30.3818 13.4083H30.3818L30.2823 14.4033ZM31.8247 14.8174L32.5662 14.1464L32.5662 14.1464L31.8247 14.8174ZM31.8247 20.1828L32.5662 20.8538L32.5662 20.8538L31.8247 20.1828ZM30.2823 20.5968V21.5968H30.3322L30.3818 21.5919L30.2823 20.5968ZM30.2823 20.5968V19.5968H30.2324L30.1828 19.6018L30.2823 20.5968ZM29.7184 20.6532L29.6189 19.6582H29.6189L29.7184 20.6532ZM28.3695 23.9098L27.5956 24.543L27.5956 24.543L28.3695 23.9098ZM28.7282 24.3482L29.5022 23.7149L29.5022 23.7149L28.7282 24.3482ZM24.3487 28.7277L24.9819 27.9537L24.9819 27.9537L24.3487 28.7277ZM23.9098 28.3685L23.2765 29.1425L23.2765 29.1425L23.9098 28.3685ZM20.6532 29.7174L19.6582 29.6179V29.6179L20.6532 29.7174ZM20.5967 30.2824L19.6017 30.1829L19.5967 30.2325V30.2824H20.5967ZM20.5967 30.2824L21.5918 30.3819L21.5967 30.3323V30.2824H20.5967ZM20.1826 31.8249L20.8536 32.5663L20.8537 32.5663L20.1826 31.8249ZM14.8173 31.8249L14.1463 32.5663L14.1463 32.5663L14.8173 31.8249ZM14.3468 29.718L13.3517 29.8175V29.8175L14.3468 29.718ZM13.5489 27.0387L13.9316 26.1148L13.9316 26.1148L13.5489 27.0387ZM11.0902 28.3691L10.457 27.5951V27.5951L11.0902 28.3691ZM10.6512 28.7283L10.0179 27.9544H10.0179L10.6512 28.7283ZM9.26769 29.5262L9.21788 30.5249H9.21788L9.26769 29.5262ZM7.97048 28.5946L7.26337 29.3017L7.26337 29.3017L7.97048 28.5946ZM6.40538 27.0295L7.11249 26.3224L7.11249 26.3224L6.40538 27.0295ZM5.47381 25.7323L6.47256 25.6825L5.47381 25.7323ZM6.27168 24.3488L7.04564 24.9821H7.04564L6.27168 24.3488ZM6.63086 23.9098L5.8569 23.2766H5.8569L6.63086 23.9098ZM7.96124 21.4511L8.88512 21.0684L7.96124 21.4511ZM5.28195 20.6533L5.38146 19.6582H5.38145L5.28195 20.6533ZM4.71762 20.5968L4.81712 19.6018L4.76749 19.5968H4.71762V20.5968ZM4.7176 20.5968L4.61809 21.5919L4.66772 21.5968H4.7176V20.5968ZM3.17517 20.1828L3.91663 19.5118H3.91663L3.17517 20.1828ZM3.17517 14.8174L2.43372 14.1464L2.43372 14.1464L3.17517 14.8174ZM4.71762 14.4033L4.61812 13.4083L4.71762 14.4033ZM5.2825 14.3468L5.183 13.3518H5.183L5.2825 14.3468ZM7.96179 13.549L8.88567 13.9317L7.96179 13.549ZM6.63141 11.0903L5.83141 11.6903L5.84408 11.7072L5.85745 11.7235L6.63141 11.0903ZM6.63141 11.0903L7.43141 10.4903L7.41874 10.4734L7.40536 10.457L6.63141 11.0903ZM6.27174 10.6507L7.0457 10.0175L6.27174 10.6507ZM6.40545 7.97L5.69834 7.2629L6.40545 7.97ZM7.97054 6.40491L7.26344 5.6978H7.26344L7.97054 6.40491ZM10.6512 6.2712L10.018 7.04516L10.6512 6.2712ZM11.0903 6.63041L11.7235 5.85646V5.85646L11.0903 6.63041ZM14.3468 5.28151L13.3518 5.182V5.182L14.3468 5.28151ZM14.4032 4.71774L15.3982 4.81724V4.81724L14.4032 4.71774ZM14.8173 3.1753L14.1463 2.43384L14.1463 2.43384L14.8173 3.1753ZM21.5918 4.61824C21.5516 4.21687 21.5139 3.82025 21.4389 3.49662C21.3574 3.14519 21.2061 2.7528 20.8537 2.43384L19.5116 3.91675C19.4449 3.85634 19.4578 3.80721 19.4906 3.94838C19.5297 4.11735 19.5562 4.36268 19.6017 4.81724L21.5918 4.61824ZM21.6482 5.18257L21.5918 4.61824L19.6017 4.81724L19.6581 5.38158L21.6482 5.18257ZM21.8337 7.03749C22.0076 7.10951 21.963 7.25113 21.8758 6.90446C21.7882 6.55637 21.7333 6.03315 21.6482 5.18258L19.6581 5.38158C19.7364 6.16455 19.8039 6.86647 19.9363 7.39241C20.0689 7.91975 20.3416 8.58424 21.0683 8.88525L21.8337 7.03749ZM23.2765 5.85703C22.6149 6.39833 22.206 6.72942 21.898 6.91363C21.5912 7.0971 21.6598 6.96546 21.8337 7.03749L21.0683 8.88525C21.795 9.18626 22.4577 8.90922 22.9244 8.63014C23.3899 8.35181 23.9339 7.90322 24.5429 7.40494L23.2765 5.85703ZM23.7154 5.49791L23.2765 5.85703L24.5429 7.40494L24.9819 7.04582L23.7154 5.49791ZM25.7819 4.47523C25.3072 4.45155 24.9227 4.62203 24.6166 4.81291C24.3347 4.98869 24.0276 5.24248 23.7154 5.49791L24.9819 7.04582C25.3354 6.75654 25.5276 6.6018 25.6748 6.51002C25.7978 6.43334 25.7722 6.47723 25.6823 6.47275L25.7819 4.47523ZM27.7364 5.69846C27.4512 5.41324 27.1709 5.13014 26.9079 4.92719C26.6222 4.7068 26.2567 4.49891 25.7819 4.47523L25.6823 6.47275C25.5924 6.46827 25.5713 6.42204 25.686 6.51057C25.8233 6.61654 25.9992 6.78964 26.3222 7.11267L27.7364 5.69846ZM29.3015 7.26356L27.7364 5.69846L26.3222 7.11267L27.8873 8.67777L29.3015 7.26356ZM30.5248 9.21806C30.5011 8.74331 30.2932 8.37774 30.0728 8.09213C29.8698 7.82913 29.5868 7.54878 29.3015 7.26356L27.8873 8.67777C28.2103 9.0008 28.3834 9.17665 28.4894 9.31397C28.5779 9.4287 28.5317 9.40762 28.5272 9.3177L30.5248 9.21806ZM29.5021 11.2846C29.7575 10.9724 30.0113 10.6653 30.1871 10.3834C30.378 10.0773 30.5484 9.69282 30.5248 9.21807L28.5272 9.31769C28.5228 9.22777 28.5667 9.20219 28.49 9.32516C28.3982 9.47235 28.2435 9.66454 27.9542 10.0181L29.5021 11.2846ZM29.1429 11.7236L29.5021 11.2846L27.9542 10.0181L27.595 10.4571L29.1429 11.7236ZM27.9625 13.1663C28.0345 13.3402 27.9029 13.4089 28.0863 13.1021C28.2705 12.794 28.6016 12.3852 29.1429 11.7236L27.595 10.4571C27.0967 11.0661 26.6481 11.6102 26.3698 12.0756C26.0907 12.5423 25.8137 13.205 26.1147 13.9317L27.9625 13.1663ZM29.8174 13.3518C28.9668 13.2668 28.4436 13.2118 28.0955 13.1242C27.7488 13.037 27.8904 12.9925 27.9625 13.1663L26.1147 13.9317C26.4157 14.6584 27.0802 14.9311 27.6076 15.0638C28.1335 15.1961 28.8354 15.2636 29.6184 15.3419L29.8174 13.3518ZM30.3818 13.4083L29.8174 13.3518L29.6184 15.3419L30.1828 15.3984L30.3818 13.4083ZM32.5662 14.1464C32.2472 13.7939 31.8549 13.6426 31.5034 13.5612C31.1798 13.4861 30.7832 13.4484 30.3818 13.4083L30.1828 15.3984C30.6374 15.4438 30.8827 15.4703 31.0517 15.5095C31.1928 15.5422 31.1437 15.5552 31.0833 15.4884L32.5662 14.1464ZM33.0833 16.3934C33.0833 15.99 33.0852 15.5916 33.0428 15.2621C32.9967 14.9043 32.8852 14.4988 32.5662 14.1464L31.0833 15.4884C31.0229 15.4216 31.0407 15.374 31.0592 15.5178C31.0814 15.6898 31.0833 15.9366 31.0833 16.3934H33.0833ZM33.0833 18.6068V16.3934H31.0833V18.6068H33.0833ZM32.5662 20.8538C32.8852 20.5013 32.9967 20.0958 33.0428 19.738C33.0852 19.4085 33.0833 19.0101 33.0833 18.6068H31.0833C31.0833 19.0636 31.0814 19.3103 31.0592 19.4824C31.0407 19.6261 31.0229 19.5785 31.0833 19.5118L32.5662 20.8538ZM30.3818 21.5919C30.7832 21.5517 31.1798 21.514 31.5034 21.439C31.8549 21.3575 32.2472 21.2062 32.5662 20.8538L31.0833 19.5118C31.1437 19.445 31.1928 19.458 31.0517 19.4907C30.8827 19.5299 30.6374 19.5564 30.1828 19.6018L30.3818 21.5919ZM30.2823 21.5968H30.2823V19.5968H30.2823V21.5968ZM29.8179 21.6483L30.3818 21.5919L30.1828 19.6018L29.6189 19.6582L29.8179 21.6483ZM27.963 21.8338C27.891 22.0077 27.7494 21.9631 28.096 21.8759C28.4441 21.7883 28.9674 21.7333 29.8179 21.6483L29.6189 19.6582C28.836 19.7365 28.134 19.804 27.6081 19.9363C27.0808 20.069 26.4163 20.3417 26.1153 21.0684L27.963 21.8338ZM29.1435 23.2765C28.6022 22.615 28.2711 22.2061 28.0869 21.898C27.9034 21.5912 28.035 21.6599 27.963 21.8338L26.1153 21.0684C25.8142 21.7951 26.0913 22.4578 26.3704 22.9245C26.6487 23.3899 27.0973 23.934 27.5956 24.543L29.1435 23.2765ZM29.5022 23.7149L29.1435 23.2765L27.5956 24.543L27.9542 24.9814L29.5022 23.7149ZM30.5248 25.7814C30.5485 25.3067 30.378 24.9223 30.1871 24.6161C30.0114 24.3342 29.7576 24.0271 29.5022 23.7149L27.9542 24.9814C28.2435 25.335 28.3983 25.5272 28.49 25.6744C28.5667 25.7973 28.5228 25.7717 28.5273 25.6818L30.5248 25.7814ZM29.3016 27.736C29.5868 27.4507 29.8699 27.1704 30.0729 26.9074C30.2933 26.6218 30.5011 26.2562 30.5248 25.7814L28.5273 25.6818C28.5318 25.5919 28.578 25.5708 28.4895 25.6855C28.3835 25.8229 28.2104 25.9987 27.8874 26.3217L29.3016 27.736ZM27.7365 29.3011L29.3016 27.736L27.8874 26.3217L26.3223 27.8868L27.7365 29.3011ZM25.782 30.5243C26.2568 30.5006 26.6223 30.2927 26.9079 30.0723C27.1709 29.8694 27.4513 29.5863 27.7365 29.3011L26.3223 27.8868C25.9993 28.2099 25.8234 28.383 25.6861 28.4889C25.5714 28.5775 25.5924 28.5313 25.6824 28.5268L25.782 30.5243ZM23.7155 29.5016C24.0277 29.757 24.3348 30.0108 24.6167 30.1866C24.9228 30.3775 25.3072 30.548 25.782 30.5243L25.6824 28.5268C25.7723 28.5223 25.7979 28.5662 25.6749 28.4895C25.5277 28.3977 25.3355 28.243 24.9819 27.9537L23.7155 29.5016ZM23.2765 29.1425L23.7155 29.5016L24.9819 27.9537L24.543 27.5946L23.2765 29.1425ZM21.8338 27.962C21.6599 28.0341 21.5912 27.9024 21.898 28.0859C22.2061 28.2701 22.6149 28.6012 23.2765 29.1425L24.543 27.5946C23.934 27.0963 23.3899 26.6477 22.9245 26.3694C22.4578 26.0903 21.7951 25.8133 21.0684 26.1143L21.8338 27.962ZM21.6483 29.8169C21.7333 28.9664 21.7883 28.4431 21.8759 28.0951C21.9631 27.7484 22.0076 27.89 21.8338 27.962L21.0684 26.1143C20.3417 26.4153 20.069 27.0798 19.9363 27.6071C19.804 28.133 19.7365 28.835 19.6582 29.6179L21.6483 29.8169ZM21.5918 30.3819L21.6483 29.8169L19.6582 29.6179L19.6017 30.1829L21.5918 30.3819ZM21.5967 30.2824V30.2824H19.5967V30.2824H21.5967ZM20.8537 32.5663C21.2061 32.2474 21.3574 31.855 21.4389 31.5035C21.5139 31.1799 21.5516 30.7833 21.5918 30.3819L19.6017 30.1829C19.5562 30.6375 19.5297 30.8828 19.4906 31.0518C19.4578 31.193 19.4449 31.1438 19.5116 31.0834L20.8537 32.5663ZM18.6067 33.0834C19.01 33.0834 19.4084 33.0854 19.7379 33.0429C20.0957 32.9968 20.5012 32.8853 20.8536 32.5663L19.5116 31.0834C19.5784 31.023 19.626 31.0408 19.4823 31.0593C19.3102 31.0815 19.0635 31.0834 18.6067 31.0834V33.0834ZM16.3933 33.0834H18.6067V31.0834H16.3933V33.0834ZM14.1463 32.5663C14.4987 32.8853 14.9042 32.9968 15.262 33.0429C15.5915 33.0854 15.9899 33.0834 16.3933 33.0834V31.0834C15.9364 31.0834 15.6897 31.0815 15.5177 31.0593C15.3739 31.0408 15.4215 31.023 15.4883 31.0834L14.1463 32.5663ZM13.4082 30.3819C13.4483 30.7833 13.486 31.1799 13.561 31.5035C13.6425 31.855 13.7938 32.2474 14.1463 32.5663L15.4883 31.0834C15.555 31.1438 15.5421 31.193 15.5094 31.0518C15.4702 30.8828 15.4437 30.6375 15.3982 30.1829L13.4082 30.3819ZM13.3517 29.8175L13.4082 30.3819L15.3982 30.1829L15.3418 29.6185L13.3517 29.8175ZM13.1662 27.9626C12.9923 27.8906 13.0369 27.749 13.1241 28.0956C13.2117 28.4437 13.2667 28.9669 13.3517 29.8175L15.3418 29.6185C15.2635 28.8355 15.196 28.1336 15.0637 27.6077C14.931 27.0803 14.6583 26.4159 13.9316 26.1148L13.1662 27.9626ZM11.7234 29.1431C12.385 28.6018 12.7939 28.2707 13.1019 28.0865C13.4087 27.903 13.3401 28.0346 13.1662 27.9626L13.9316 26.1148C13.2049 25.8138 12.5422 26.0909 12.0755 26.3699C11.6101 26.6483 11.066 27.0969 10.457 27.5951L11.7234 29.1431ZM11.2844 29.5023L11.7234 29.1431L10.457 27.5951L10.0179 27.9544L11.2844 29.5023ZM9.21788 30.5249C9.69264 30.5486 10.0771 30.3781 10.3832 30.1873C10.6651 30.0115 10.9722 29.7577 11.2844 29.5023L10.0179 27.9544C9.66436 28.2436 9.47216 28.3984 9.32497 28.4902C9.202 28.5668 9.22758 28.5229 9.31751 28.5274L9.21788 30.5249ZM7.26337 29.3017C7.54859 29.5869 7.82894 29.87 8.09195 30.073C8.37755 30.2934 8.74312 30.5013 9.21788 30.5249L9.31751 28.5274C9.40743 28.5319 9.42852 28.5781 9.31379 28.4896C9.17646 28.3836 9.00062 28.2105 8.67758 27.8875L7.26337 29.3017ZM5.69827 27.7366L7.26337 29.3017L8.67758 27.8875L7.11249 26.3224L5.69827 27.7366ZM4.47505 25.7821C4.49873 26.2569 4.70661 26.6224 4.927 26.908C5.12996 27.1711 5.41305 27.4514 5.69827 27.7366L7.11249 26.3224C6.78946 25.9994 6.61636 25.8235 6.51039 25.6862C6.42186 25.5715 6.46808 25.5926 6.47256 25.6825L4.47505 25.7821ZM5.49772 23.7156C5.2423 24.0278 4.9885 24.3349 4.81273 24.6168C4.62185 24.9229 4.45137 25.3074 4.47505 25.7821L6.47256 25.6825C6.47705 25.7724 6.43315 25.798 6.50983 25.675C6.60161 25.5278 6.75635 25.3356 7.04564 24.9821L5.49772 23.7156ZM5.8569 23.2766L5.49772 23.7156L7.04564 24.9821L7.40482 24.5431L5.8569 23.2766ZM7.03736 21.8338C6.96533 21.6599 7.09697 21.5913 6.9135 21.8981C6.72929 22.2061 6.3982 22.615 5.8569 23.2766L7.40482 24.5431C7.90309 23.9341 8.35168 23.39 8.63001 22.9245C8.90909 22.4578 9.18613 21.7951 8.88512 21.0684L7.03736 21.8338ZM5.18245 21.6483C6.03302 21.7334 6.55625 21.7884 6.90433 21.8759C7.251 21.9632 7.10939 22.0077 7.03736 21.8338L8.88512 21.0684C8.58411 20.3417 7.91962 20.069 7.39228 19.9364C6.86635 19.8041 6.16442 19.7365 5.38146 19.6582L5.18245 21.6483ZM4.61812 21.5919L5.18245 21.6483L5.38145 19.6582L4.81712 19.6018L4.61812 21.5919ZM4.7176 21.5968H4.71762V19.5968H4.7176V21.5968ZM2.43372 20.8538C2.75268 21.2062 3.14506 21.3575 3.49649 21.439C3.82011 21.514 4.21674 21.5517 4.61809 21.5919L4.81711 19.6018C4.36254 19.5564 4.11723 19.5299 3.94825 19.4907C3.80709 19.458 3.85621 19.445 3.91663 19.5118L2.43372 20.8538ZM1.91663 18.6068C1.91663 19.0101 1.91468 19.4085 1.95715 19.738C2.00326 20.0958 2.11476 20.5013 2.43372 20.8538L3.91663 19.5118C3.97704 19.5785 3.95926 19.6261 3.94074 19.4824C3.91857 19.3103 3.91663 19.0636 3.91663 18.6068H1.91663ZM1.91663 16.3934V18.6068H3.91663V16.3934H1.91663ZM2.43372 14.1464C2.11476 14.4988 2.00326 14.9043 1.95715 15.2621C1.91468 15.5916 1.91663 15.99 1.91663 16.3934H3.91663C3.91663 15.9366 3.91857 15.6898 3.94074 15.5178C3.95926 15.374 3.97704 15.4216 3.91663 15.4884L2.43372 14.1464ZM4.61812 13.4083C4.21675 13.4484 3.82012 13.4861 3.4965 13.5612C3.14507 13.6426 2.75268 13.7939 2.43372 14.1464L3.91663 15.4884C3.85621 15.5552 3.80708 15.5422 3.94825 15.5095C4.11723 15.4703 4.36255 15.4438 4.81712 15.3984L4.61812 13.4083ZM5.183 13.3518L4.61812 13.4083L4.81712 15.3984L5.382 15.3419L5.183 13.3518ZM7.03791 13.1663C7.10993 12.9924 7.25155 13.037 6.90488 13.1242C6.55679 13.2117 6.03357 13.2667 5.183 13.3518L5.382 15.3419C6.16497 15.2636 6.86689 15.196 7.39282 15.0637C7.92017 14.9311 8.58466 14.6584 8.88567 13.9317L7.03791 13.1663ZM5.85745 11.7235C6.39875 12.3851 6.72984 12.794 6.91405 13.102C7.09751 13.4088 6.96588 13.3402 7.03791 13.1663L8.88567 13.9317C9.18668 13.205 8.90964 12.5423 8.63056 12.0756C8.35223 11.6101 7.90364 11.066 7.40537 10.457L5.85745 11.7235ZM5.83141 11.6903L5.83141 11.6903L7.43141 10.4903L7.43141 10.4903L5.83141 11.6903ZM5.49779 11.2839L5.85745 11.7235L7.40536 10.457L7.0457 10.0175L5.49779 11.2839ZM4.47511 9.2174C4.45143 9.69216 4.62191 10.0766 4.81279 10.3827C4.98857 10.6646 5.24236 10.9717 5.49779 11.2839L7.0457 10.0175C6.75642 9.66388 6.60168 9.47169 6.5099 9.3245C6.43322 9.20153 6.47712 9.22711 6.47263 9.31703L4.47511 9.2174ZM5.69834 7.2629C5.41312 7.54812 5.13002 7.82846 4.92707 8.09147C4.70668 8.37708 4.49879 8.74265 4.47511 9.2174L6.47263 9.31703C6.46815 9.40695 6.42192 9.42804 6.51045 9.31331C6.61642 9.17599 6.78952 9.00014 7.11255 8.67711L5.69834 7.2629ZM7.26344 5.6978L5.69834 7.2629L7.11255 8.67711L8.67765 7.11201L7.26344 5.6978ZM9.21795 4.47457C8.74319 4.49825 8.37762 4.70613 8.09201 4.92653C7.82901 5.12948 7.54866 5.41258 7.26344 5.6978L8.67765 7.11201C9.00068 6.78898 9.17653 6.61588 9.31386 6.50991C9.42858 6.42138 9.4075 6.4676 9.31757 6.47209L9.21795 4.47457ZM11.2845 5.49725C10.9723 5.24182 10.6652 4.98803 10.3833 4.81225C10.0771 4.62137 9.6927 4.45089 9.21795 4.47457L9.31757 6.47209C9.22765 6.47657 9.20207 6.43268 9.32504 6.50935C9.47223 6.60113 9.66442 6.75588 10.018 7.04516L11.2845 5.49725ZM11.7235 5.85646L11.2845 5.49725L10.018 7.04516L10.457 7.40437L11.7235 5.85646ZM13.1663 7.03692C13.3402 6.96489 13.4088 7.09652 13.102 6.91306C12.794 6.72885 12.3851 6.39776 11.7235 5.85646L10.457 7.40437C11.066 7.90265 11.6101 8.35124 12.0756 8.62957C12.5423 8.90865 13.205 9.18569 13.9317 8.88468L13.1663 7.03692ZM13.3518 5.182C13.2667 6.03258 13.2117 6.5558 13.1242 6.90389C13.0369 7.25055 12.9924 7.10894 13.1663 7.03692L13.9317 8.88468C14.6584 8.58366 14.9311 7.91918 15.0637 7.39183C15.196 6.8659 15.2636 6.16397 15.3419 5.38101L13.3518 5.182ZM13.4082 4.61823L13.3518 5.182L15.3419 5.38101L15.3982 4.81724L13.4082 4.61823ZM14.1463 2.43384C13.7938 2.7528 13.6425 3.14519 13.561 3.49662C13.486 3.82024 13.4483 4.21687 13.4082 4.61824L15.3982 4.81724C15.4437 4.36267 15.4702 4.11735 15.5094 3.94838C15.5421 3.80721 15.555 3.85633 15.4883 3.91675L14.1463 2.43384ZM16.3933 1.91675C15.9899 1.91675 15.5915 1.91481 15.262 1.95727C14.9042 2.00338 14.4987 2.11488 14.1463 2.43384L15.4883 3.91675C15.4215 3.97716 15.3739 3.95939 15.5177 3.94086C15.6897 3.91869 15.9364 3.91675 16.3933 3.91675V1.91675ZM18.6067 1.91675H16.3933V3.91675H18.6067V1.91675ZM20.8537 2.43384C20.5012 2.11488 20.0957 2.00338 19.7379 1.95727C19.4084 1.91481 19.01 1.91675 18.6067 1.91675V3.91675C19.0635 3.91675 19.3102 3.91869 19.4823 3.94086C19.626 3.95939 19.5784 3.97716 19.5116 3.91675L20.8537 2.43384ZM22.3333 17.5001C22.3333 20.1695 20.1693 22.3334 17.5 22.3334V24.3334C21.2739 24.3334 24.3333 21.274 24.3333 17.5001H22.3333ZM17.5 12.6667C20.1693 12.6667 22.3333 14.8307 22.3333 17.5001H24.3333C24.3333 13.7261 21.2739 10.6667 17.5 10.6667V12.6667ZM12.6666 17.5001C12.6666 14.8307 14.8306 12.6667 17.5 12.6667V10.6667C13.726 10.6667 10.6666 13.7261 10.6666 17.5001H12.6666ZM17.5 22.3334C14.8306 22.3334 12.6666 20.1695 12.6666 17.5001H10.6666C10.6666 21.274 13.726 24.3334 17.5 24.3334V22.3334Z" fill="#CED4DA"/>
</svg>
